<?xml version="1.0" standalone="no"?>
<!DOCTYPE svg PUBLIC "-//W3C//DTD SVG 20010904//EN"
 "http://www.w3.org/TR/2001/REC-SVG-20010904/DTD/svg10.dtd">
<svg version="1.0" xmlns="http://www.w3.org/2000/svg"
 width="260.000000pt" height="260.000000pt" viewBox="0 0 260.000000 260.000000"
 preserveAspectRatio="xMidYMid meet">
<metadata>
Created by potrace 1.11, written by Peter Selinger 2001-2013
</metadata>
<g transform="translate(0.000000,260.000000) scale(0.100000,-0.100000)"
fill="#000000" stroke="none">
<path d="M1185 2549 c-646 -59 -1147 -609 -1147 -1259 0 -343 126 -644 372
-890 246 -246 547 -372 890 -372 343 0 644 126 890 372 246 246 372 547 372
890 0 257 -72 490 -219 713 -61 92 -238 269 -330 330 -252 167 -541 242 -828
216z m355 -559 c0 -6 -83 -189 -184 -408 l-185 -397 -63 0 c-51 0 -62 3 -60
15 2 8 85 192 185 408 l182 392 62 0 c36 0 63 -4 63 -10z m-632 -212 l-3 -53
-178 -66 c-97 -36 -179 -68 -182 -70 -2 -3 79 -35 180 -73 l185 -68 0 -54 c0
-37 -4 -54 -12 -54 -7 0 -125 45 -263 99 l-250 98 -3 50 -3 49 243 96 c134 53
253 97 266 97 22 1 23 -2 20 -51z m1085 -45 l248 -97 -3 -49 -3 -50 -250 -98
c-137 -54 -256 -99 -262 -99 -9 0 -13 17 -13 54 l0 54 185 68 c101 38 182 70
180 73 -3 2 -85 34 -182 70 l-178 66 -3 53 c-3 44 0 52 15 52 9 0 129 -44 266
-97z m-1336 -933 c8 -15 13 -66 13 -133 l0 -108 -27 3 -28 3 -3 108 c-2 82 -6
107 -16 107 -19 0 -26 -33 -26 -132 0 -87 0 -88 -25 -88 -25 0 -25 0 -25 98 0
53 -5 104 -10 112 -18 29 -29 -6 -32 -105 l-3 -100 -27 -3 -28 -3 0 130 0 130
33 3 c17 2 68 4 112 3 74 0 80 -2 92 -25z m256 18 c41 -21 46 -39 47 -150 0
-108 0 -108 -24 -108 -14 0 -27 4 -31 9 -3 6 -17 6 -36 -1 -16 -6 -44 -7 -61
-4 -49 10 -68 33 -68 82 0 59 32 84 106 84 47 0 54 3 54 20 0 31 -66 40 -122
15 -15 -6 -18 -2 -18 23 0 21 6 32 18 35 35 9 114 7 135 -5z m371 -1 c21 -15
17 -54 -5 -48 -49 14 -78 12 -98 -8 -18 -18 -21 -33 -21 -111 l0 -90 -30 0
-30 0 0 130 0 131 40 -3 c22 -1 43 1 46 5 12 12 79 8 98 -6z m277 3 c12 -7 19
-21 19 -42 0 -30 0 -30 -25 -14 -37 25 -80 20 -104 -10 -57 -72 11 -169 90
-130 40 20 39 20 39 -8 0 -31 -20 -47 -67 -52 -84 -11 -149 59 -139 149 9 79
47 116 124 117 24 0 52 -5 63 -10z m597 4 c16 -5 22 -14 22 -36 0 -25 -3 -29
-17 -22 -10 4 -35 9 -55 12 -29 3 -39 0 -44 -13 -8 -21 8 -32 57 -40 21 -4 45
-15 55 -26 24 -27 23 -84 -2 -109 -45 -45 -184 -30 -184 21 0 23 -6 23 88 3
20 -4 34 -1 46 11 23 23 7 40 -52 55 -62 15 -72 25 -72 71 0 53 29 79 89 79
25 0 56 -3 69 -6z m-418 -93 c0 -68 4 -93 16 -105 19 -20 24 -20 52 0 20 14
22 23 22 105 l0 89 30 0 30 0 0 -130 0 -130 -30 0 c-16 0 -30 4 -30 10 0 6 -9
5 -24 -1 -14 -7 -40 -9 -61 -5 -50 10 -65 48 -65 166 l0 90 30 0 30 0 0 -89z"/>
<path d="M812 671 c-17 -11 -12 -41 9 -54 23 -14 73 12 77 41 3 19 -1 22 -35
22 -21 0 -44 -4 -51 -9z"/>
</g>
</svg>
